<svg width="24" height="24" viewBox="0 0 24 24" fill="none" xmlns="http://www.w3.org/2000/svg">
  <path d="M12 4C7.58 4 4 5.79 4 8V16C4 18.21 7.58 20 12 20C16.42 20 20 18.21 20 16V8C20 5.79 16.42 4 12 4ZM12 6C15.31 6 18 6.9 18 8C18 9.1 15.31 10 12 10C8.69 10 6 9.1 6 8C6 6.9 8.69 6 12 6ZM18 12C18 13.1 15.31 14 12 14C8.69 14 6 13.1 6 12V10.2C7.85 11.27 10.35 11.95 12 11.95C13.65 11.95 16.15 11.27 18 10.2V12ZM18 16C18 17.1 15.31 18 12 18C8.69 18 6 17.1 6 16V14.2C7.85 15.27 10.35 15.95 12 15.95C13.65 15.95 16.15 15.27 18 14.2V16Z" fill="#e0e0e0"/>
</svg>